<svg 
xmlns="http://www.w3.org/2000/svg" style="display:none;">	
<defs>

		<!-- Angle Down Icon -->		
	<symbol id="icon-angle-down" viewBox="0 0 320 512">
					<path d="M143 352.3L7 216.3c-9.4-9.4-9.4-24.6 0-33.9l22.6-22.6c9.4-9.4 24.6-9.4 33.9 0l96.4 96.4 96.4-96.4c9.4-9.4 24.6-9.4 33.9 0l22.6 22.6c9.4 9.4 9.4 24.6 0 33.9l-136 136c-9.2 9.2-24.3 9.2-33.5 0z"/>		
	</symbol>

		<!-- Arrow Left Icon -->		
	<symbol id="icon-arrow-left" viewBox="0 0 24 24">
					<path d="M20 11H7.83l5.59-5.59L12 4l-8 8 8 8 1.41-1.41L7.83 13H20v-2z"/>		
	</symbol>

		<!-- Arrow Right Icon -->		
	<symbol id="icon-arrow-right" viewBox="0 0 24 24">
					<path d="M4 11h12.17l-5.59-5.59L12 4l8 8-8 8-1.41-1.41L16.17 13H4v-2z"/>		
	</symbol>

		<!-- Behance Icon -->		
	<symbol id="icon-behance" viewBox="0 0 576 512">
					<path d="M232 237.2c31.8-15.2 48.4-38.2 48.4-74 0-70.6-52.6-87.8-113.4-87.8H0v354.4h171.8c64.4 0 124.9-30.9 124.9-102.9 0-44.5-21.1-77.4-64.7-89.7zM77.9 135.9H151c31.8 0 51.8 11.6 51.8 40.7 0 30-20 40.6-52 40.6H77.9V135.9zm83.8 233.7H77.9V272h84.9c34.1 0 56 16.9 56 50 0 33.5-22.2 47.6-56.1 47.6z"/>		
	</symbol>

		<!-- CodePen Icon -->		
	<symbol id="icon-codepen" viewBox="0 0 576 512">
					<path d="M476 3.2L12.5 270.6c-18.1 10.7-15.5 35.8 2.2 43.2L121 358.4l287.9-253V513.2l287.9-253L121 153.6 14.7 201.7c-20.5 9.6-21 37.8 0 47.4L475 509.8c21.3 11.8 47.4-1.1 47.4-23.2V25.5c.1-22.1-26.1-35-47.4-23.3z"/>		
	</symbol>

		<!-- DeviantArt Icon -->		
	<symbol id="icon-deviantart" viewBox="0 0 320 512">
					<path d="M320 93.7h-75.6v103.2H320v93.7h-75.6V512h-94.5V290.6h-75.6v-93.7h75.6V93.7H0V0h320z"/>		
	</symbol>

		<!-- Digg Icon -->		
	<symbol id="icon-digg" viewBox="0 0 80 80">
					<path d="M10 10h15v40H10V10zm25 0h15v25H35V10zm0 30h15v10H35v-10zM60 10h15v15H60V10zm0 20h15v5H60v-5z"/>		
	</symbol>

		<!-- Docker Icon -->		
	<symbol id="icon-dockerhub" viewBox="0 0 640 512">
					<path d="M349.9 236.3h-66.1v-59.4h66.1v59.4zm0-204.3h-66.1v60.7h66.1V32zm78.2 144.8H362v59.4h66.1v-59.4zm-156.3-60.7h-66.1v60.7h66.1V32zm78.1 0h-66.1v60.7h66.2V32zM640 262.1h-.1v-65.4c0-6.6-5.5-12-12-12h-9.6V32c0-13.2-10.7-24-24-24H296c-13.2 0-24 10.8-24 24v146.6h-9.6c-6.6 0-12 5.5-12 12v65.4H0v262c0 13.2 10.7 24 24 24h591.6c13.3 0 24-10.7 24-24v-262zm-405.7-60.7h-66.1v60.7h66.1v-60.7zm78.1 0h-66.1v60.7h66.1v-60.7z"/>		
	</symbol>

		<!-- Dribbble Icon -->		
	<symbol id="icon-dribbble" viewBox="0 0 512 512">
					<path d="M256 8C119 8 8 119 8 256s111 248 248 248 248-111 248-248S393 8 256 8zm163 114c29 36 47 82 47 132 0 6-.3 12-.7 18h-83c-6-15-14-29-25-40 11-3 21-7 30-12zM256 48c27 0 53 5 77 15-11 27-26 51-45 72-14-11-25-26-33-44-27-74-71-82-123 11-1 22-2 33-2 33-24 0-47-9-65-24C96 82 170 48 256 48zm111 354c-13-16-23-34-29-55 13-4 26-9 38-15 16 18 28 41 36 65-14 3-29 5-45 5z"/>
	</symbol>

		<!-- Dropbox Icon -->		
	<symbol id="icon-dropbox" viewBox="0 0 528 512">
					<path d="M264 1.7L0 81v350c0 27.6 7.1 53.8 19.5 76.5 101 103.3 220.3 75.4 244.5 58.2 24.1 17.1 143.8 45.3 244.5-58.2 12.3-22.8 19.5-48.9 19.5-76.5v-350L264 1.7z"/>		
	</symbol>

		<!-- Facebook Icon -->		
	<symbol id="icon-facebook" viewBox="0 0 320 512">
					<path d="M279.1 288l14.22-92.66h-88.91v-60.13c0-25.35 12.42-50.06 52.24-50.06h40.42V6.26S260.43 0 225.36 0c-73.22 0-121.08 44.38-121.08 124.72v70.62H22.89V288h81.39v224.58h100.17V288z"/>		
	</symbol>

		<!-- Flickr Icon -->		
	<symbol id="icon-flickr" viewBox="0 0 448 512">
					<path d="M400 32H48C21.5 32 0 53.5 0 80v352c0 26.5 21.5 48 48 48h352c26.5 0 48-21.5 48-48V80c0-26.5-21.5-48-48-48zM144.5 319c-35.1 0-63.5-28.4-63.5-63.5s28.4-63.5 63.5-63.5 63.5 28.4 63.5 63.5-28.4 63.5-63.5 63.5zm159 0c-35.1 0-63.5-28.4-63.5-63.5s28.4-63.5 63.5-63.5 63.5 28.4 63.5 63.5-28.4 63.5-63.5 63.5z"/>		
	</symbol>

		<!-- Foursquare Icon -->		
	<symbol id="icon-foursquare" viewBox="0 0 368 512">
					<path d="M323.1 3H49.9C13.5 3 0 16.5 0 52.9v406.2C0 495.5 13.5 509 49.9 509h273.2c36.4 0 49.9-13.5 49.9-49.9V52.9C373 16.5 359.5 3 323.1 3zm-16.3 434H58.3V61.2h248.8v375.8zm-99-135.6h-99v-99h99v99z"/>		
	</symbol>

		<!-- Google Plus Icon -->		
	<symbol id="icon-google-plus" viewBox="0 0 640 512">
					<path d="M386.061 293.654v48.477h84.1c-3.4 19.8-24.3 58-84.1 58-50.6 0-91.9-42-91.9-93.8 0-51.7 41.3-93.8 91.9-93.8 28.6 0 47.7 12.1 58.7 22.6l38.5-37c-25.3-23.6-58.1-38-97.2-38-80.6 0-146.3 65.9-146.3 147.2s65.7 147.2 146.3 147.2c84.7 0 141.4-59.5 141.4-143.4 0-9.6-.9-17-2.3-24.3H386.061zM640 244v-51.2h-51.2V244h51.2zm-25.6-76.8h25.6v-102.4h-25.6z"/>		
	</symbol>

		<!-- GitHub Icon -->		
	<symbol id="icon-github" viewBox="0 0 496 512">
					<path d="M165.9 397.4c0 2-2.3 3.6-5.2 3.6-3.3.3-5.6-1.3-5.6-3.6 0-2 2.3-3.6 5.2-3.6 3-.3 5.6 1.3 5.6 3.6zM134.3 361.3c-.7 1.3-2.3 1.9-3.9 1.7-1.6-.2-2.9-1.3-2.8-2.6.7-1.3 2.3-1.9 3.9-1.7 1.6.2 2.9 1.3 2.8 2.6zm65 32.9c-1.7.7-3.9-.1-4.7-1.9-.7-1.8.1-3.9 1.8-4.6 1.7-.7 3.9.1 4.7 1.9.7 1.8-.1 3.9-1.8 4.6zM248 8C111 8 0 119 0 256s111 248 248 248 248-111 248-248S385 8 248 8zm0 448c-110.3 0-200-89.7-200-200S137.7 56 248 56s200 89.7 200 200-89.7 200-200 200zm0-375.7c-97.7 0-177 79.3-177 177s79.3 177 177 177 177-79.3 177-177-79.3-177-177-177z"/>		
	</symbol>

		<!-- Instagram Icon -->		
	<symbol id="icon-instagram" viewBox="0 0 440 512">
					<path d="M224 109.6c52.2 0 58.4 0 78.7 1.1 19 .9 29.3 4.1 36.1 6.8 9.1 3.5 15.6 7.7 22.4 14.5.7.7 1.4 1.5 2.1 2.3 6.8 6.8 11 13.3 14.5 22.4 2.7 6.8 5.9 17.1 6.8 36.1 1.1 20.3 1.1 26.5 1.1 78.7s0 58.4-1.1 78.7c-.9 19-4.1 29.3-6.8 36.1-3.5 9.1-7.7 15.6-14.5 22.4-.7.7-1.5 1.4-2.3 2.1-6.8 6.8-13.3 11-22.4 14.5-6.8 2.7-17.1 5.9-36.1 6.8-20.3 1.1-26.5 1.1-78.7 1.1s-58.4 0-78.7-1.1c-19-.9-29.3-4.1-36.1-6.8-9.1-3.5-15.6-7.7-22.4-14.5-.7-.7-1.4-1.5-2.1-2.3-6.8-6.8-11-13.3-14.5-22.4-2.7-6.8-5.9-17.1-6.8-36.1-1.1-20.3-1.1-26.5-1.1-78.7s0-58.4 1.1-78.7c.9-19 4.1-29.3 6.8-36.1 3.5-9.1 7.7-15.6 14.5-22.4.7-.7 1.5-1.4 2.3-2.1 6.8-6.8 13.3-11 22.4-14.5 6.8-2.7 17.1-5.9 36.1-6.8 20.2-1.1 26.4-1.1 78.7-1.1zm0-45.5c-53 0-59.6 0-80.5 1.2-21 .9-35.3 4.1-47.8 8.8-12.9 5-23.9 11.7-34.8 22.6-10.9 10.9-17.6 21.9-22.6 34.8-4.7 12.5-7.9 26.8-8.8 47.8C4 164.4 4 171 4 224s0 59.6 1.2 80.5c.9 21 4.1 35.3 8.8 47.8 5 12.9 11.7 23.9 22.6 34.8 10.9 10.9 21.9 17.6 34.8 22.6 12.5 4.7 26.8 7.9 47.8 8.8 20.9 1.2 27.5 1.2 80.5 1.2s59.6 0 80.5-1.2c21-.9 35.3-4.1 47.8-8.8 12.9-5 23.9-11.7 34.8-22.6 10.9-10.9 17.6-21.9 22.6-34.8 4.7-12.5 7.9-26.8 8.8-47.8 1.2-20.9 1.2-27.5 1.2-80.5s0-59.6-1.2-80.5c-.9-21-4.1-35.3-8.8-47.8-5-12.9-11.7-23.9-22.6-34.8-10.9-10.9-21.9-17.6-34.8-22.6-12.5-4.7-26.8-7.9-47.8-8.8-20.9-1.2-27.5-1.2-80.5-1.2z"/>		
	</symbol>

		<!-- LinkedIn Icon -->		
	<symbol id="icon-linkedin" viewBox="0 0 448 512">
					<path d="M416 32H31.9C14.3 32 0 46.5 0 64.3v383.4C0 465.5 14.3 480 31.9 480H416c17.6 0 32-14.5 32-32.3V64.3c0-17.8-14.4-32.3-32-32.3zM135.4 416H69V202.2h66.4V416zm-33.2-243c-21.3 0-38.5-17.3-38.5-38.5S80.9 96 102.2 96c21.2 0 38.5 17.3 38.5 38.5 0 21.3-17.2 38.5-38.5 38.5zm282.1 243h-66.4v-105.3c0-26.1-9.3-44-32.9-44-17.9 0-28.5 12.1-33.1 23.7-1.7 4.1-2.1 9.8-2.1 15.6V416h-66.4V202.2h66.4v29.2c9.3-14.3 26-34.7 63.9-34.7 46.7 0 81.7 30.5 81.7 96.2V416z"/>		
	</symbol>

		<!-- Envelope/Email Icon -->		
	<symbol id="icon-envelope-o" viewBox="0 0 512 512">
					<path d="M464 64H48C21.5 64 0 85.5 0 112v288c0 26.5 21.5 48 48 48h416c26.5 0 48-21.5 48-48V112c0-26.5-21.5-48-48-48zm0 48v40.805c-22.422 18.259-58.168 46.651-134.587 106.49-16.841 13.247-50.201 45.072-73.413 44.701-23.208.375-56.579-31.459-73.413-44.701C106.18 199.465 70.425 171.067 48 152.805V112h416zM48 400V214.398c22.91 18.582 58.337 47.099 134.587 106.490 16.887 13.297 50.287 45.239 73.413 44.868 23.126.371 56.526-31.571 73.413-44.868 76.25-59.391 111.677-87.908 134.587-106.490V400H48z"/>		
	</symbol>

		<!-- Medium Icon -->		
	<symbol id="icon-medium" viewBox="0 0 512 512">
					<path d="M71.5 142.3c.6-5.9-1.6-11.8-5.7-15.8 16.4-20.6 40.5-52 58.7-77.6 18.1-25.6 36.3-52 52.6-77.3C181 5.8 196 0 212 0c77.3 0 158 68.8 158 158v60c85.3 0 160 86-84.3 160-123 37-160-54-160-128V115.5z"/>		
	</symbol>

		<!-- Periscope Icon -->		
	<symbol id="icon-periscope" viewBox="0 0 448 512">
					<path d="M224 0C100.3 0 0 100.3 0 224s100.3 224 224 224 224-100.3 224-224S347.7 0 224 0zm0 64c88.4 0 160 71.6 160 160s-71.6 160-160 160-160-71.6-160-160 71.6-160 160-160z"/>		
	</symbol>

		<!-- Get Pocket Icon -->		
	<symbol id="icon-get-pocket" viewBox="0 0 448 512">
					<path d="M407.6 64h-367C18.5 64 0 82.5 0 104.6v302.8C0 429.5 18.5 448 40.6 448h367c22.1 0 40.4-18.5 40.4-40.6V104.6C448 82.5 429.7 64 407.6 64zm-360 80c0-8.8 7.2-16 16-16h312c8.8 0 16 7.2 16 16v24c0 8.8-7.2 16-16 16h-312c-8.8 0-16-7.2-16-16v-24z"/>		
	</symbol>

		<!-- Reddit Icon -->		
	<symbol id="icon-reddit-alien" viewBox="0 0 512 512">
					<path d="M440.3 203.5c-15 0-28.2 6.2-37.9 15.9-35.7-24.7-83.8-40.6-137.7-42.3.9-36.7 36.3-66.3 80.1-66.3 44.6 0 81 29.6 81 66 0 .4 0 .8-.1 1.2 13.6 1.3 26.6 5.3 38.6 11.5 20.3-17.6 47.4-28 76.5-28 64.1 0 116 51.9 116 116s-51.9 116-116 116c-28.4 0-54.3-10.7-73.9-28.3 5.5 20.3 8.6 41.6 8.6 63.7 0 110.9-90.9 200.6-203 200.6S37 457.4 37 346.5c0-22.1 3.1-43.4 8.6-63.7-19.6 17.6-45.5 28.3-73.9 28.3-64.1 0-116-51.9-116-116s51.9-116 116-116c29.1 0 56.2 10.3 76.5 28 12-6.2 25-10.2 38.6-11.5-.1-.4-.1-.8-.1-1.2 0-36.4 36.4-66 81-66s80.1 29.6 80.1 66.3c-53.9 1.7-102 17.6-137.7 42.3-9.7-9.7-22.9-15.9-37.9-15.9zM398.8 388.1c39.6 0 71.8-32.1 71.8-71.8s-32.1-71.8-71.8-71.8c-39.6 0-71.8 32.1-71.8 71.8s32.1 71.8 71.8 71.8zm-284.6 0c39.6 0 71.8-32.1 71.8-71.8s-32.1-71.8-71.8-71.8c-39.6 0-71.8 32.1-71.8 71.8 0 39.6 32.2 71.8 71.8 71.8z"/>		
	</symbol>

		<!-- Skype Icon -->		
	<symbol id="icon-skype" viewBox="0 0 448 512">
					<path d="M424.7 299.8c2.9-14 4.7-28.9 4.7-43.8 0-113.5-92.3-205.8-205.8-205.8-14.9 0-29.7 1.7-43.8 4.7C161.9 40.7 137.8 32 112 32 50.3 32 0 82.3 0 144v224c0 61.7 50.3 112 112 112 25.8 0 50-8.7 69.9-23.3 14 2.9 28.9 4.7 43.8 4.7 113.5 0 205.8-92.3 205.8-205.8 0-14.9-1.7-29.7-4.7-43.8 14.3-23.6 22.7-51 22.7-80.7 0-88.4-71.6-160-160-160-29.7 0-57.1 8.4-80.7 22.7zm-257.6 35.6c-17.9 0-32 3.6-32 8s14.1 8 32 8 32-3.6 32-8-14.1-8-32-8zm112-128c59.6 0 108.6 47.1 108.6 105.2 0 13.3-2.3 26-6.6 38.2-4.4-2.7-4.4-2.7-4.4-2.7l-3.6-2.3-2.6 3c-26.1 34.1-68.2 56.2-115.3 56.2-7.6 0-15.2-.7-22.6-2.1.1-47.4 38.6-85.9 86.1-85.9 0-36 29.3-65.1 65.4-65.1.1 0 .1 0 0 0zm.2 99.2c0-1.3.1-2.6.1-3.9 0-66-53-119.4-118.7-119.4-66 0-119.4 53.4-119.4 119.4 0 .8 0 1.5 0 2.3 0 1.3-.1 2.6-.1 3.9 17.9 8.3 37.7 12.9 58.5 12.9 58.6 0 106.2-47.6 106.2-106.2zm-115.2 73.7c-18 0-32 3.6-32 8s14 8 32 8 32-3.6 32-8-14-8-32-8z"/>		
	</symbol>

		<!-- YouTube Icon (can be added if needed) -->		
	<symbol id="icon-youtube" viewBox="0 0 576 512">
					<path d="M549.655 124.083c-6.281-23.65-24.787-42.276-48.284-48.597C458.781 64 288 64 288 64S117.22 64 74.629 75.486c-23.497 6.322-42.003 24.947-48.284 48.597-11.412 42.867-11.412 132.305-11.412 132.305s0 89.438 11.412 132.305c6.281 23.65 24.787 41.5 48.284 47.821C117.22 448 288 448 288 448s170.78 0 213.371-11.486c23.497-6.321 42.003-24.171 48.284-47.821 11.412-42.867 11.412-132.305 11.412-132.305s0-89.438-11.412-132.305zm-317.51 213.508V175.185l142.739 81.205-142.739 81.201z"/>		
	</symbol>

	
</defs>

</svg>